<?xml version="1.0" encoding="iso-8859-1"?>
<!-- Generator: Adobe Illustrator 21.0.0, SVG Export Plug-In . SVG Version: 6.00 Build 0)  -->
<svg xmlns="http://www.w3.org/2000/svg" xmlns:xlink="http://www.w3.org/1999/xlink" version="1.1" id="Capa_1" x="0px" y="0px" viewBox="0 0 512 512" style="enable-background:new 0 0 512 512;" xml:space="preserve" width="512" height="512">
<g>
	<path d="M435.858,186.031L512,77.291L0,77.785l95.344,94.086L71.363,340.887l105.076-40.595l85.29,134.417l50.866-72.643   c18.98,16.5,43.752,26.502,70.817,26.502c59.592,0,108.074-48.481,108.074-108.073   C491.485,239.924,469.009,204.509,435.858,186.031z M133.524,209.078l-17.759,31.684l8.748-61.658l185.379-36.996L133.524,209.078z    M331.246,107.362l-215.191,42.945l-43.266-42.695L331.246,107.362z M123.08,288.857l21.624-38.579l15.402,24.274L123.08,288.857z    M166.35,228.593l276.805-105.107l-36.096,51.55c-7.614-1.706-15.527-2.613-23.649-2.613c-59.591,0-108.073,48.481-108.073,108.073   c0,21.437,6.275,41.436,17.083,58.258l-29.469,42.085L166.35,228.593z M383.412,358.672c-43.106,0-78.176-35.07-78.176-78.176   c0-43.107,35.07-78.177,78.176-78.177c43.107,0,78.177,35.07,78.177,78.177C461.589,323.602,426.519,358.672,383.412,358.672z"/>
	<polygon points="358.19,260.167 372.987,260.167 372.987,324.533 402.087,324.533 402.087,238.219 358.19,238.219  "/>
</g>















</svg>
